<svg version="1.1" class="clearos-svg clearfoundation app-vendor-clearfoundation app-free app-category-gateway app-sub-category-intrusion-protection" viewBox="0 0 400 400" preserveAspectRatio="xMinYMin" xmlns="http://www.w3.org/2000/svg" xmlns:xlink= "http://www.w3.org/1999/xlink">
  <g
     id="g4"
     transform="matrix(0.46324885,0,0,0.46324885,22.478205,17.916664)">
    <g
       id="g6">
      <path
         d="m 769.86,335.997 c -12.109,-18.247 -35.035,-6.737 -48.509,0.673 -13.473,7.41 -76.133,32.339 -76.133,32.339 0,0 -42.445,-175.841 -49.178,-199.42 -9.207,-27.755 -34.36,-39.202 -55.922,-39.202 -21.563,0 -45.813,8.208 -68.72,17.642 -22.907,9.433 -66.698,25.602 -82.868,25.602 -16.17,0 -41.097,-11.454 -78.825,-26.275 -37.729,-14.821 -52.949,-16.994 -63.205,-18.457 -52.325,-7.463 -65.689,40.591 -65.689,40.591 l -41.558,199.519 c 0,0 -26.948,-6.063 -68.719,-26.275 C 35,326 19.5,321.75 7.205,340.04 c -13.955,26.46 17.572,41.945 17.572,41.945 0,0 30.261,25.426 196.671,61.807 19.868,4.344 39.12,7.662 57.725,10.182 -1.249,-6.688 -1.932,-13.572 -1.932,-20.622 0,-61.651 49.975,-111.626 111.628,-111.626 61.648,0 111.625,49.975 111.625,111.626 0,6.114 -0.51,12.111 -1.457,17.961 24.317,-3.466 42.844,-6.75 54.557,-7.521 41.099,-2.695 132.722,-32.338 180.555,-54.571 41.573,-17.971 45.816,-39.076 35.711,-53.224 z"
         id="path8"
         style="fill:#686868" />
      <path
         d="m 467.782,455.318 c 1.946,-6.998 3.067,-14.345 3.067,-21.968 0,-45.277 -36.704,-81.98 -81.979,-81.98 -45.279,0 -81.982,36.703 -81.982,81.98 0,8.424 1.279,16.544 3.639,24.195 61.991,5.658 115.379,2.498 157.255,-2.227 z"
         id="path10"
         style="fill:#686868" />
    </g>
    <path
       d="m 388.871,267.953 c -91.349,0 -165.4,74.051 -165.4,165.398 0,26.421 6.229,51.381 17.248,73.535 l -135.486,99.948 32.002,42.779 134.753,-99.24 c 29.927,29.891 71.246,48.376 116.884,48.376 91.347,0 165.396,-74.052 165.396,-165.398 0,-91.346 -74.05,-165.398 -165.397,-165.398 z m 0,277.026 c -61.653,0 -111.628,-49.976 -111.628,-111.629 0,-61.651 49.975,-111.626 111.628,-111.626 61.648,0 111.625,49.975 111.625,111.626 0,61.654 -49.976,111.629 -111.625,111.629 z"
       id="path12"
       style="fill:#686868" />
  </g>
</svg>
